<svg xmlns="http://www.w3.org/2000/svg" xmlns:xlink="http://www.w3.org/1999/xlink" version="1.1" width="256" height="256" viewBox="0 0 256 256" xml:space="preserve">
<g style="stroke: none; stroke-width: 0; stroke-dasharray: none; stroke-linecap: butt; stroke-linejoin: miter; stroke-miterlimit: 10; fill: none; fill-rule: nonzero; opacity: 1;" transform="translate(1.4065934065934016 1.4065934065934016) scale(2.81 2.81)">
	<path d="M 65.591 11.377 H 24.41 c -0.552 0 -1 -0.448 -1 -1 s 0.448 -1 1 -1 h 41.181 c 0.553 0 1 0.448 1 1 S 66.144 11.377 65.591 11.377 z" style="stroke: none; stroke-width: 2; stroke-dasharray: none; stroke-linecap: butt; stroke-linejoin: miter; stroke-miterlimit: 10; fill: rgb(140,140,140); fill-rule: nonzero; opacity: 1;" transform=" matrix(1 0 0 1 0 0) " stroke-linecap="round"/>
	<path d="M 89 29.068 H 1 c -0.552 0 -1 -0.448 -1 -1 v -9.292 c 0 -5.182 4.216 -9.398 9.398 -9.398 H 16.1 c 0.552 0 1 0.448 1 1 s -0.448 1 -1 1 H 9.398 C 5.319 11.377 2 14.696 2 18.775 v 8.292 h 86 v -8.292 c 0 -4.08 -3.319 -7.398 -7.398 -7.398 h -6.702 c -0.553 0 -1 -0.448 -1 -1 s 0.447 -1 1 -1 h 6.702 c 5.183 0 9.398 4.216 9.398 9.398 v 9.292 C 90 28.62 89.553 29.068 89 29.068 z" style="stroke: none; stroke-width: 2; stroke-dasharray: none; stroke-linecap: butt; stroke-linejoin: miter; stroke-miterlimit: 10; fill: rgb(140,140,140); fill-rule: nonzero; opacity: 1;" transform=" matrix(1 0 0 1 0 0) " stroke-linecap="round"/>
	<path d="M 80.602 89.081 H 9.398 C 4.216 89.081 0 84.865 0 79.683 V 28.068 c 0 -0.552 0.448 -1 1 -1 h 88 c 0.553 0 1 0.448 1 1 v 51.615 C 90 84.865 85.784 89.081 80.602 89.081 z M 2 29.068 v 50.615 c 0 4.079 3.319 7.398 7.398 7.398 h 71.204 c 4.079 0 7.398 -3.319 7.398 -7.398 V 29.068 H 2 z" style="stroke: none; stroke-width: 2; stroke-dasharray: none; stroke-linecap: butt; stroke-linejoin: miter; stroke-miterlimit: 10; fill: rgb(140,140,140); fill-rule: nonzero; opacity: 1;" transform=" matrix(1 0 0 1 0 0) " stroke-linecap="round"/>
	<path d="M 22.75 52.791 H 17.76 c -2.06 0 -3.736 -1.676 -3.736 -3.735 v -4.989 c 0 -2.06 1.676 -3.736 3.736 -3.736 h 4.989 c 2.06 0 3.736 1.676 3.736 3.736 v 4.989 C 26.485 51.115 24.81 52.791 22.75 52.791 z M 17.76 42.33 c -0.957 0 -1.736 0.779 -1.736 1.736 v 4.989 c 0 0.957 0.779 1.735 1.736 1.735 h 4.989 c 0.957 0 1.736 -0.778 1.736 -1.735 v -4.989 c 0 -0.958 -0.779 -1.736 -1.736 -1.736 H 17.76 z" style="stroke: none; stroke-width: 2; stroke-dasharray: none; stroke-linecap: butt; stroke-linejoin: miter; stroke-miterlimit: 10; fill: rgb(140,140,140); fill-rule: nonzero; opacity: 1;" transform=" matrix(1 0 0 1 0 0) " stroke-linecap="round"/>
	<path d="M 47.494 52.791 h -4.989 c -2.06 0 -3.736 -1.676 -3.736 -3.735 v -4.989 c 0 -2.06 1.676 -3.736 3.736 -3.736 h 4.989 c 2.061 0 3.736 1.676 3.736 3.736 v 4.989 C 51.23 51.115 49.555 52.791 47.494 52.791 z M 42.505 42.33 c -0.957 0 -1.736 0.779 -1.736 1.736 v 4.989 c 0 0.957 0.779 1.735 1.736 1.735 h 4.989 c 0.957 0 1.736 -0.778 1.736 -1.735 v -4.989 c 0 -0.958 -0.779 -1.736 -1.736 -1.736 H 42.505 z" style="stroke: none; stroke-width: 2; stroke-dasharray: none; stroke-linecap: butt; stroke-linejoin: miter; stroke-miterlimit: 10; fill: rgb(140,140,140); fill-rule: nonzero; opacity: 1;" transform=" matrix(1 0 0 1 0 0) " stroke-linecap="round"/>
	<path d="M 72.239 52.791 h -4.988 c -2.061 0 -3.736 -1.676 -3.736 -3.735 v -4.989 c 0 -2.06 1.676 -3.736 3.736 -3.736 h 4.988 c 2.061 0 3.736 1.676 3.736 3.736 v 4.989 C 75.976 51.115 74.3 52.791 72.239 52.791 z M 67.251 42.33 c -0.957 0 -1.736 0.779 -1.736 1.736 v 4.989 c 0 0.957 0.779 1.735 1.736 1.735 h 4.988 c 0.957 0 1.736 -0.778 1.736 -1.735 v -4.989 c 0 -0.958 -0.779 -1.736 -1.736 -1.736 H 67.251 z" style="stroke: none; stroke-width: 2; stroke-dasharray: none; stroke-linecap: butt; stroke-linejoin: miter; stroke-miterlimit: 10; fill: rgb(140,140,140); fill-rule: nonzero; opacity: 1;" transform=" matrix(1 0 0 1 0 0) " stroke-linecap="round"/>
	<path d="M 22.75 74.309 H 17.76 c -2.06 0 -3.736 -1.676 -3.736 -3.735 v -4.989 c 0 -2.061 1.676 -3.736 3.736 -3.736 h 4.989 c 2.06 0 3.736 1.676 3.736 3.736 v 4.989 C 26.485 72.633 24.81 74.309 22.75 74.309 z M 17.76 63.848 c -0.957 0 -1.736 0.779 -1.736 1.736 v 4.989 c 0 0.957 0.779 1.735 1.736 1.735 h 4.989 c 0.957 0 1.736 -0.778 1.736 -1.735 v -4.989 c 0 -0.957 -0.779 -1.736 -1.736 -1.736 H 17.76 z" style="stroke: none; stroke-width: 2; stroke-dasharray: none; stroke-linecap: butt; stroke-linejoin: miter; stroke-miterlimit: 10; fill: rgb(140,140,140); fill-rule: nonzero; opacity: 1;" transform=" matrix(1 0 0 1 0 0) " stroke-linecap="round"/>
	<path d="M 47.494 74.309 h -4.989 c -2.06 0 -3.736 -1.676 -3.736 -3.735 v -4.989 c 0 -2.061 1.676 -3.736 3.736 -3.736 h 4.989 c 2.061 0 3.736 1.676 3.736 3.736 v 4.989 C 51.23 72.633 49.555 74.309 47.494 74.309 z M 42.505 63.848 c -0.957 0 -1.736 0.779 -1.736 1.736 v 4.989 c 0 0.957 0.779 1.735 1.736 1.735 h 4.989 c 0.957 0 1.736 -0.778 1.736 -1.735 v -4.989 c 0 -0.957 -0.779 -1.736 -1.736 -1.736 H 42.505 z" style="stroke: none; stroke-width: 2; stroke-dasharray: none; stroke-linecap: butt; stroke-linejoin: miter; stroke-miterlimit: 10; fill: rgb(140,140,140); fill-rule: nonzero; opacity: 1;" transform=" matrix(1 0 0 1 0 0) " stroke-linecap="round"/>
	<path d="M 72.239 74.309 h -4.988 c -2.061 0 -3.736 -1.676 -3.736 -3.735 v -4.989 c 0 -2.061 1.676 -3.736 3.736 -3.736 h 4.988 c 2.061 0 3.736 1.676 3.736 3.736 v 4.989 C 75.976 72.633 74.3 74.309 72.239 74.309 z M 67.251 63.848 c -0.957 0 -1.736 0.779 -1.736 1.736 v 4.989 c 0 0.957 0.779 1.735 1.736 1.735 h 4.988 c 0.957 0 1.736 -0.778 1.736 -1.735 v -4.989 c 0 -0.957 -0.779 -1.736 -1.736 -1.736 H 67.251 z" style="stroke: none; stroke-width: 2; stroke-dasharray: none; stroke-linecap: butt; stroke-linejoin: miter; stroke-miterlimit: 10; fill: rgb(140,140,140); fill-rule: nonzero; opacity: 1;" transform=" matrix(1 0 0 1 0 0) " stroke-linecap="round"/>
	<path d="M 21.673 19.835 h -2.837 c -2.06 0 -3.736 -1.676 -3.736 -3.736 V 4.655 c 0 -2.06 1.676 -3.736 3.736 -3.736 h 2.837 c 2.06 0 3.736 1.676 3.736 3.736 v 11.444 C 25.41 18.159 23.733 19.835 21.673 19.835 z M 18.836 2.919 c -0.958 0 -1.736 0.779 -1.736 1.736 v 11.444 c 0 0.958 0.779 1.736 1.736 1.736 h 2.837 c 0.958 0 1.736 -0.779 1.736 -1.736 V 4.655 c 0 -0.957 -0.779 -1.736 -1.736 -1.736 H 18.836 z" style="stroke: none; stroke-width: 2; stroke-dasharray: none; stroke-linecap: butt; stroke-linejoin: miter; stroke-miterlimit: 10; fill: rgb(140,140,140); fill-rule: nonzero; opacity: 1;" transform=" matrix(1 0 0 1 0 0) " stroke-linecap="round"/>
	<path d="M 71.164 19.835 h -2.838 c -2.06 0 -3.735 -1.676 -3.735 -3.736 V 4.655 c 0 -2.06 1.676 -3.736 3.735 -3.736 h 2.838 c 2.06 0 3.735 1.676 3.735 3.736 v 11.444 C 74.899 18.159 73.224 19.835 71.164 19.835 z M 68.326 2.919 c -0.957 0 -1.735 0.779 -1.735 1.736 v 11.444 c 0 0.958 0.778 1.736 1.735 1.736 h 2.838 c 0.957 0 1.735 -0.779 1.735 -1.736 V 4.655 c 0 -0.957 -0.778 -1.736 -1.735 -1.736 H 68.326 z" style="stroke: none; stroke-width: 2; stroke-dasharray: none; stroke-linecap: butt; stroke-linejoin: miter; stroke-miterlimit: 10; fill: rgb(140,140,140); fill-rule: nonzero; opacity: 1;" transform=" matrix(1 0 0 1 0 0) " stroke-linecap="round"/>
</g>
</svg>